<svg xmlns="http://www.w3.org/2000/svg" width="480" height="210" viewBox="0 0 480 210" fill="none" role="img" aria-labelledby="title"><title id="title">Rendel Abainza — Useful software. Thoughtfully built.</title><rect x=".5" y=".5" width="479" height="209" rx="14" fill="#111116" stroke="#343440"/><path d="M24 27h20" stroke="#c8b6f2" stroke-width="2"/>
 <g font-family="Arial, Helvetica, sans-serif"><text x="55" y="33" font-size="17" letter-spacing="1" fill="#b9b9c6" font-weight="600">RENDEL ABAINZA</text><text x="24" y="93" font-size="32" fill="#f5f5f8" font-weight="700" letter-spacing="-.8">Useful software.</text><text x="24" y="135" font-size="32" fill="#c8b6f2" font-weight="700" letter-spacing="-.8">Thoughtfully built.</text><text x="24" y="181" font-size="14" fill="#b9b9c6">DEVELOPER / From interface to system.</text></g>
 <path d="M324 60v83" stroke="#343440"/><g transform="translate(333 47) scale(.75)"><path d="M35 125V66h15v10c7-9 14-12 25-11v16c-17-2-24 5-24 22v22zm87-2c-7 4-13 6-20 6-17 0-28-13-28-33s11-33 28-33c8 0 14 3 20 8v-6h16v60h-16zm-15-9c10 0 16-7 16-18s-6-18-16-18-16 7-16 18 6 18 16 18" fill="#f5f5f8"/><circle cx="153" cy="119" r="8" fill="#c8b6f2"/></g><circle cx="448" cy="28" r="4" fill="#c8b6f2" opacity=".3"></circle></svg>
