<svg width="1214" height="747" viewBox="0 0 1214 747" fill="none" xmlns="http://www.w3.org/2000/svg">
<path d="M0 13H333C415.167 78.6667 509.8 232.2 231 321L436 639M436 639L824.5 2L1211.5 639H913L824 513L733.5 639H436Z" stroke="#384B70" stroke-width="2"/>
<path d="M0 20.5H333C415.167 86.1667 509.8 239.7 231 328.5L436 646.5M436 646.5L824.5 9.5L1211.5 646.5H913L824 520.5L733.5 646.5H436Z" stroke="#384B70" stroke-width="2"/>
<path d="M0 28.5H333C415.167 94.1667 509.8 247.7 231 336.5L436 654.5M436 654.5L824.5 17.5L1211.5 654.5H913L824 528.5L733.5 654.5H436Z" stroke="#384B70" stroke-width="2"/>
<path d="M0 37.5H333C415.167 103.167 509.8 256.7 231 345.5L436 663.5M436 663.5L824.5 26.5L1211.5 663.5H913L824 537.5L733.5 663.5H436Z" stroke="#384B70" stroke-width="2"/>
<path d="M0 45.5H333C415.167 111.167 509.8 264.7 231 353.5L436 671.5M436 671.5L824.5 34.5L1211.5 671.5H913L824 545.5L733.5 671.5H436Z" stroke="#384B70" stroke-width="2"/>
<path d="M0 52.5H333C415.167 118.167 509.8 271.7 231 360.5L436 678.5M436 678.5L824.5 41.5L1211.5 678.5H913L824 552.5L733.5 678.5H436Z" stroke="#384B70" stroke-width="2"/>
<path d="M0 61.5H333C415.167 127.167 509.8 280.7 231 369.5L436 687.5M436 687.5L824.5 50.5L1211.5 687.5H913L824 561.5L733.5 687.5H436Z" stroke="#384B70" stroke-width="2"/>
<path d="M0 69.5H333C415.167 135.167 509.8 288.7 231 377.5L436 695.5M436 695.5L824.5 58.5L1211.5 695.5H913L824 569.5L733.5 695.5H436Z" stroke="#384B70" stroke-opacity="0.8" stroke-width="2"/>
<path d="M0 78.5H333C415.167 144.167 509.8 297.7 231 386.5L436 704.5M436 704.5L824.5 67.5L1211.5 704.5H913L824 578.5L733.5 704.5H436Z" stroke="#384B70" stroke-opacity="0.7" stroke-width="2"/>
<path d="M0 86.5H333C415.167 152.167 509.8 305.7 231 394.5L436 712.5M436 712.5L824.5 75.5L1211.5 712.5H913L824 586.5L733.5 712.5H436Z" stroke="#384B70" stroke-opacity="0.55" stroke-width="2"/>
<path d="M0 94.5H333C415.167 160.167 509.8 313.7 231 402.5L436 720.5M436 720.5L824.5 83.5L1211.5 720.5H913L824 594.5L733.5 720.5H436Z" stroke="#384B70" stroke-opacity="0.4" stroke-width="2"/>
<path d="M0 103.5H333C415.167 169.167 509.8 322.7 231 411.5L436 729.5M436 729.5L824.5 92.5L1211.5 729.5H913L824 603.5L733.5 729.5H436Z" stroke="#384B70" stroke-opacity="0.25" stroke-width="2"/>
<path d="M0 111.5H333C415.167 177.167 509.8 330.7 231 419.5L436 737.5M436 737.5L824.5 100.5L1211.5 737.5H913L824 611.5L733.5 737.5H436Z" stroke="#384B70" stroke-opacity="0.1" stroke-width="2"/>
<path d="M0 119.5H333C415.167 185.167 509.8 338.7 231 427.5L436 745.5M436 745.5L824.5 108.5L1211.5 745.5H913L824 619.5L733.5 745.5H436Z" stroke="#384B70" stroke-opacity="0.05" stroke-width="2"/>
</svg>
